<svg xmlns="http://www.w3.org/2000/svg" viewBox="0 0 516.0 336.0" width="516.0" role="img" aria-label="The ball-handler 1 dribbles from the left wing past his defender toward the middle of the lane, then drops a pass off toward the rim. On the right, the wing player's defender x2 has stepped in off him toward the lane, labeled eyes on the drive. The wing player 2 cuts behind him at a 45-degree angle to the rim, labeled 45 cut, and the drop-off pass ends beside the end of his cut. 4 stands at the top, 3 in the left corner and 5 on the left baseline, each with a defender." class="hd-court-svg">
  <title>The 45 cut: when the defender's eyes leave him for a drive, cut to the rim at 45 degrees</title>
  <defs><marker id="hd-arrow-o" viewBox="0 0 10 10" refX="9" refY="5" markerWidth="5" markerHeight="5" orient="auto-start-reverse"><path d="M 0 0 L 10 5 L 0 10 z" fill="var(--hd-offense, #C97400)"/></marker><marker id="hd-arrow-d" viewBox="0 0 10 10" refX="9" refY="5" markerWidth="5" markerHeight="5" orient="auto-start-reverse"><path d="M 0 0 L 10 5 L 0 10 z" fill="var(--hd-defense, #209CAD)"/></marker></defs>
  <rect x="8.0" y="8.0" width="500.0" height="320.0" fill="var(--court-floor, #fdfdfd)" stroke="var(--court-line, #3d444d)" stroke-width="1.6"/>
  <path d="M 38.0 328.0 L 38.0 186.02 A 237.5 237.5 0 0 1 478.0 186.02 L 478.0 328.0" stroke="var(--court-line, #3d444d)" fill="none" stroke-width="1.6"/>
  <rect x="178.0" y="138.0" width="160.0" height="190.0" stroke="var(--court-line, #3d444d)" fill="none" stroke-width="1.6"/>
  <path d="M 198.0 138.0 A 60.0 60.0 0 0 1 318.0 138.0" stroke="var(--court-line, #3d444d)" fill="none" stroke-width="1.6"/>
  <path d="M 198.0 138.0 A 60.0 60.0 0 0 0 318.0 138.0" stroke="var(--court-line, #3d444d)" fill="none" stroke-width="1.1" stroke-dasharray="5 4"/>
  <path d="M 218.0 275.5 A 40.0 40.0 0 0 1 298.0 275.5" stroke="var(--court-line, #3d444d)" fill="none" stroke-width="1.1"/>
  <line x1="228.0" y1="288.0" x2="288.0" y2="288.0" stroke="var(--court-line, #3d444d)" stroke-width="2.6"/>
  <circle cx="258.0" cy="275.5" r="7.5" stroke="var(--court-line, #3d444d)" fill="none" stroke-width="2"/>
  <path d="M 58.0,128.0 L 59.79,132.75 L 61.82,137.03 L 64.28,140.44 L 67.31,142.72 L 70.95,143.77 L 75.15,143.69 L 79.79,142.75 L 84.67,141.33 L 89.54,139.92 L 94.18,138.97 L 98.39,138.9 L 102.02,139.95 L 105.05,142.23 L 107.51,145.64 L 109.54,149.92 L 111.33,154.67 L 113.13,159.41 L 115.15,163.69 L 117.61,167.1 L 120.64,169.38 L 124.28,170.44 L 128.49,170.36 L 133.13,169.41 L 138.0,168.0 L 142.87,166.59 L 147.51,165.64 L 151.72,165.56 L 155.36,166.62 L 158.39,168.9 L 160.85,172.31 L 162.87,176.59 L 164.67,181.33 L 166.46,186.08 L 168.49,190.36 L 170.95,193.77 L 173.98,196.05 L 177.61,197.1 L 181.82,197.03 L 186.46,196.08 L 191.33,194.67 L 196.21,193.25 L 200.85,192.31 L 205.05,192.23 L 208.69,193.28 L 211.72,195.56 L 214.18,198.97 L 216.21,203.25 L 218.0,208.0" stroke="var(--hd-offense, #C97400)" fill="none" marker-end="url(#hd-arrow-o)" stroke-width="1.7"/>
  <line x1="458.0" y1="128.0" x2="288.0" y2="268.0" stroke="var(--hd-offense, #C97400)" fill="none" marker-end="url(#hd-arrow-o)" stroke-width="1.9"/>
  <line x1="218.0" y1="208.0" x2="283.0" y2="258.0" stroke="var(--hd-offense, #C97400)" fill="none" marker-end="url(#hd-arrow-o)" stroke-width="1.7" stroke-dasharray="7 5"/>
  <circle cx="58.0" cy="128.0" r="15.0" fill="var(--court-floor, #fff)" stroke="var(--hd-offense, #C97400)" stroke-width="2.2"/>
  <text x="58.0" y="128.0" text-anchor="middle" dominant-baseline="central" font-size="15.0" font-weight="600" fill="var(--hd-offense-ink, #A85F00)">1</text>
  <circle cx="75.25" cy="110.75" r="6.2" fill="#F39F1E" stroke="var(--hd-offense, #C97400)" stroke-width="0.8"/>
  <circle cx="458.0" cy="128.0" r="15.0" fill="var(--court-floor, #fff)" stroke="var(--hd-offense, #C97400)" stroke-width="2.2"/>
  <text x="458.0" y="128.0" text-anchor="middle" dominant-baseline="central" font-size="15.0" font-weight="600" fill="var(--hd-offense-ink, #A85F00)">2</text>
  <circle cx="163.0" cy="298.0" r="15.0" fill="var(--court-floor, #fff)" stroke="var(--hd-offense, #C97400)" stroke-width="2.2"/>
  <text x="163.0" y="298.0" text-anchor="middle" dominant-baseline="central" font-size="15.0" font-weight="600" fill="var(--hd-offense-ink, #A85F00)">5</text>
  <circle cx="46.0" cy="288.0" r="15.0" fill="var(--court-floor, #fff)" stroke="var(--hd-offense, #C97400)" stroke-width="2.2"/>
  <text x="46.0" y="288.0" text-anchor="middle" dominant-baseline="central" font-size="15.0" font-weight="600" fill="var(--hd-offense-ink, #A85F00)">3</text>
  <circle cx="258.0" cy="33.0" r="15.0" fill="var(--court-floor, #fff)" stroke="var(--hd-offense, #C97400)" stroke-width="2.2"/>
  <text x="258.0" y="33.0" text-anchor="middle" dominant-baseline="central" font-size="15.0" font-weight="600" fill="var(--hd-offense-ink, #A85F00)">4</text>
  <line x1="100.5" y1="177.5" x2="125.5" y2="202.5" stroke="var(--hd-defense, #209CAD)" stroke-width="2.6" stroke-linecap="round"/>
  <line x1="100.5" y1="202.5" x2="125.5" y2="177.5" stroke="var(--hd-defense, #209CAD)" stroke-width="2.6" stroke-linecap="round"/>
  <text x="113.0" y="218.75" text-anchor="middle" font-size="13.0" fill="var(--hd-defense-ink, #14717F)">x1</text>
  <line x1="370.5" y1="130.5" x2="395.5" y2="155.5" stroke="var(--hd-defense, #209CAD)" stroke-width="2.6" stroke-linecap="round"/>
  <line x1="370.5" y1="155.5" x2="395.5" y2="130.5" stroke="var(--hd-defense, #209CAD)" stroke-width="2.6" stroke-linecap="round"/>
  <text x="383.0" y="171.75" text-anchor="middle" font-size="13.0" fill="var(--hd-defense-ink, #14717F)">x2</text>
  <line x1="195.5" y1="255.5" x2="220.5" y2="280.5" stroke="var(--hd-defense, #209CAD)" stroke-width="2.6" stroke-linecap="round"/>
  <line x1="195.5" y1="280.5" x2="220.5" y2="255.5" stroke="var(--hd-defense, #209CAD)" stroke-width="2.6" stroke-linecap="round"/>
  <text x="208.0" y="296.75" text-anchor="middle" font-size="13.0" fill="var(--hd-defense-ink, #14717F)">x5</text>
  <line x1="65.5" y1="235.5" x2="90.5" y2="260.5" stroke="var(--hd-defense, #209CAD)" stroke-width="2.6" stroke-linecap="round"/>
  <line x1="65.5" y1="260.5" x2="90.5" y2="235.5" stroke="var(--hd-defense, #209CAD)" stroke-width="2.6" stroke-linecap="round"/>
  <text x="78.0" y="276.75" text-anchor="middle" font-size="13.0" fill="var(--hd-defense-ink, #14717F)">x3</text>
  <line x1="245.5" y1="55.5" x2="270.5" y2="80.5" stroke="var(--hd-defense, #209CAD)" stroke-width="2.6" stroke-linecap="round"/>
  <line x1="245.5" y1="80.5" x2="270.5" y2="55.5" stroke="var(--hd-defense, #209CAD)" stroke-width="2.6" stroke-linecap="round"/>
  <text x="258.0" y="96.75" text-anchor="middle" font-size="13.0" fill="var(--hd-defense-ink, #14717F)">x4</text>
  <text x="380.5" y="119.5" text-anchor="middle" font-size="13.5" font-style="italic" fill="var(--hd-muted, #5b6672)">eyes on the drive</text>
  <text x="373.0" y="232.0" text-anchor="start" font-size="13.5" font-style="italic" fill="var(--hd-muted, #5b6672)">45 cut</text>
</svg>