<svg xmlns="http://www.w3.org/2000/svg" viewBox="0 0 516.0 356.0" width="516.0" role="img" aria-label="Half court, defense set. The ball-handler, 1, has the ball at the right slot with his defender, x1, below him. The big, 5, stands on x1's left with a screen bar between them. 1 dribbles left over the top of the screen toward the middle and stops at the top of the free-throw circle. 5 rolls from the screen down the lane toward the rim, labeled roll. The big's defender, x5, has dropped back to the free-throw line, labeled drop, directly below the end of the handler's dribble. 2 and 3 are in the corners and 4 is on the left wing, each with a defender." class="hd-court-svg">
  <title>The pick-and-roll: the screen, then the roll, against a set defense</title>
  <defs><marker id="hd-arrow-o" viewBox="0 0 10 10" refX="9" refY="5" markerWidth="5" markerHeight="5" orient="auto-start-reverse"><path d="M 0 0 L 10 5 L 0 10 z" fill="var(--hd-offense, #C97400)"/></marker><marker id="hd-arrow-d" viewBox="0 0 10 10" refX="9" refY="5" markerWidth="5" markerHeight="5" orient="auto-start-reverse"><path d="M 0 0 L 10 5 L 0 10 z" fill="var(--hd-defense, #209CAD)"/></marker></defs>
  <rect x="8.0" y="8.0" width="500.0" height="340.0" fill="var(--court-floor, #fdfdfd)" stroke="var(--court-line, #3d444d)" stroke-width="1.6"/>
  <path d="M 38.0 348.0 L 38.0 206.02 A 237.5 237.5 0 0 1 478.0 206.02 L 478.0 348.0" stroke="var(--court-line, #3d444d)" fill="none" stroke-width="1.6"/>
  <rect x="178.0" y="158.0" width="160.0" height="190.0" stroke="var(--court-line, #3d444d)" fill="none" stroke-width="1.6"/>
  <path d="M 198.0 158.0 A 60.0 60.0 0 0 1 318.0 158.0" stroke="var(--court-line, #3d444d)" fill="none" stroke-width="1.6"/>
  <path d="M 198.0 158.0 A 60.0 60.0 0 0 0 318.0 158.0" stroke="var(--court-line, #3d444d)" fill="none" stroke-width="1.1" stroke-dasharray="5 4"/>
  <path d="M 218.0 295.5 A 40.0 40.0 0 0 1 298.0 295.5" stroke="var(--court-line, #3d444d)" fill="none" stroke-width="1.1"/>
  <line x1="228.0" y1="308.0" x2="288.0" y2="308.0" stroke="var(--court-line, #3d444d)" stroke-width="2.6"/>
  <circle cx="258.0" cy="295.5" r="7.5" stroke="var(--court-line, #3d444d)" fill="none" stroke-width="2"/>
  <line x1="333.0" y1="129.0" x2="333.0" y2="95.0" stroke="var(--hd-offense, #C97400)" stroke-width="3" stroke-linecap="round"/>
  <path d="M 348.0,73.0 L 345.48,70.03 L 343.07,67.58 L 340.87,66.07 L 338.95,65.8 L 337.33,66.86 L 335.99,69.16 L 334.85,72.41 L 333.83,76.17 L 332.81,79.92 L 331.68,83.17 L 330.33,85.47 L 328.71,86.53 L 326.79,86.26 L 324.6,84.75 L 322.19,82.3 L 319.67,79.33 L 317.14,76.37 L 314.74,73.91 L 312.54,72.41 L 310.62,72.13 L 309.0,73.2 L 307.65,75.5 L 306.52,78.74 L 305.5,82.5 L 304.48,86.26 L 303.35,89.5 L 302.0,91.8 L 300.38,92.87 L 298.46,92.59 L 296.26,91.09 L 293.86,88.63 L 291.33,85.67 L 288.81,82.7 L 286.4,80.25 L 284.21,78.74 L 282.29,78.47 L 280.67,79.53 L 279.32,81.83 L 278.19,85.08 L 277.17,88.83 L 276.15,92.59 L 275.01,95.84 L 273.67,98.14 L 272.05,99.2 L 270.13,98.93 L 267.93,97.42 L 265.52,94.97 L 263.0,92.0" stroke="var(--hd-offense, #C97400)" fill="none" marker-end="url(#hd-arrow-o)" stroke-width="1.7"/>
  <line x1="313.0" y1="112.0" x2="278.0" y2="254.0" stroke="var(--hd-offense, #C97400)" fill="none" marker-end="url(#hd-arrow-o)" stroke-width="1.9"/>
  <circle cx="348.0" cy="73.0" r="15.0" fill="var(--court-floor, #fff)" stroke="var(--hd-offense, #C97400)" stroke-width="2.2"/>
  <text x="348.0" y="73.0" text-anchor="middle" dominant-baseline="central" font-size="15.0" font-weight="600" fill="var(--hd-offense-ink, #A85F00)">1</text>
  <circle cx="365.25" cy="55.75" r="6.2" fill="#F39F1E" stroke="var(--hd-offense, #C97400)" stroke-width="0.8"/>
  <circle cx="313.0" cy="112.0" r="15.0" fill="var(--court-floor, #fff)" stroke="var(--hd-offense, #C97400)" stroke-width="2.2"/>
  <text x="313.0" y="112.0" text-anchor="middle" dominant-baseline="central" font-size="15.0" font-weight="600" fill="var(--hd-offense-ink, #A85F00)">5</text>
  <circle cx="470.0" cy="308.0" r="15.0" fill="var(--court-floor, #fff)" stroke="var(--hd-offense, #C97400)" stroke-width="2.2"/>
  <text x="470.0" y="308.0" text-anchor="middle" dominant-baseline="central" font-size="15.0" font-weight="600" fill="var(--hd-offense-ink, #A85F00)">2</text>
  <circle cx="46.0" cy="308.0" r="15.0" fill="var(--court-floor, #fff)" stroke="var(--hd-offense, #C97400)" stroke-width="2.2"/>
  <text x="46.0" y="308.0" text-anchor="middle" dominant-baseline="central" font-size="15.0" font-weight="600" fill="var(--hd-offense-ink, #A85F00)">3</text>
  <circle cx="58.0" cy="148.0" r="15.0" fill="var(--court-floor, #fff)" stroke="var(--hd-offense, #C97400)" stroke-width="2.2"/>
  <text x="58.0" y="148.0" text-anchor="middle" dominant-baseline="central" font-size="15.0" font-weight="600" fill="var(--hd-offense-ink, #A85F00)">4</text>
  <line x1="340.5" y1="99.5" x2="365.5" y2="124.5" stroke="var(--hd-defense, #209CAD)" stroke-width="2.6" stroke-linecap="round"/>
  <line x1="340.5" y1="124.5" x2="365.5" y2="99.5" stroke="var(--hd-defense, #209CAD)" stroke-width="2.6" stroke-linecap="round"/>
  <text x="353.0" y="140.75" text-anchor="middle" font-size="13.0" fill="var(--hd-defense-ink, #14717F)">x1</text>
  <line x1="250.5" y1="137.5" x2="275.5" y2="162.5" stroke="var(--hd-defense, #209CAD)" stroke-width="2.6" stroke-linecap="round"/>
  <line x1="250.5" y1="162.5" x2="275.5" y2="137.5" stroke="var(--hd-defense, #209CAD)" stroke-width="2.6" stroke-linecap="round"/>
  <text x="263.0" y="178.75" text-anchor="middle" font-size="13.0" fill="var(--hd-defense-ink, #14717F)">x5</text>
  <line x1="435.5" y1="255.5" x2="460.5" y2="280.5" stroke="var(--hd-defense, #209CAD)" stroke-width="2.6" stroke-linecap="round"/>
  <line x1="435.5" y1="280.5" x2="460.5" y2="255.5" stroke="var(--hd-defense, #209CAD)" stroke-width="2.6" stroke-linecap="round"/>
  <text x="448.0" y="249.0" text-anchor="middle" font-size="13.0" fill="var(--hd-defense-ink, #14717F)">x2</text>
  <line x1="65.5" y1="255.5" x2="90.5" y2="280.5" stroke="var(--hd-defense, #209CAD)" stroke-width="2.6" stroke-linecap="round"/>
  <line x1="65.5" y1="280.5" x2="90.5" y2="255.5" stroke="var(--hd-defense, #209CAD)" stroke-width="2.6" stroke-linecap="round"/>
  <text x="78.0" y="296.75" text-anchor="middle" font-size="13.0" fill="var(--hd-defense-ink, #14717F)">x3</text>
  <line x1="95.5" y1="165.5" x2="120.5" y2="190.5" stroke="var(--hd-defense, #209CAD)" stroke-width="2.6" stroke-linecap="round"/>
  <line x1="95.5" y1="190.5" x2="120.5" y2="165.5" stroke="var(--hd-defense, #209CAD)" stroke-width="2.6" stroke-linecap="round"/>
  <text x="108.0" y="206.75" text-anchor="middle" font-size="13.0" fill="var(--hd-defense-ink, #14717F)">x4</text>
  <text x="294.0" y="242.0" text-anchor="start" font-size="13.5" font-style="italic" fill="var(--hd-muted, #5b6672)">roll</text>
  <text x="238.0" y="145.0" text-anchor="end" font-size="13.5" font-style="italic" fill="var(--hd-muted, #5b6672)">drop</text>
</svg>