<svg xmlns="http://www.w3.org/2000/svg" viewBox="0 0 516.0 336.0" width="516.0" role="img" aria-label="The ball-handler is on the right wing with the ball. The big sets the screen below him, standing with his back to the baseline, so the handler comes off the screen going toward the baseline and the rim rather than toward the middle. The handler's defender is caught above the screen. The big's defender is in the lane. The other three attackers are spaced on the weak side and at the top." class="hd-court-svg">
  <title>The step-up screen: set with the screener's back to the baseline, it sends the handler baseline</title>
  <defs><marker id="hd-arrow-o" viewBox="0 0 10 10" refX="9" refY="5" markerWidth="5" markerHeight="5" orient="auto-start-reverse"><path d="M 0 0 L 10 5 L 0 10 z" fill="var(--hd-offense, #C97400)"/></marker><marker id="hd-arrow-d" viewBox="0 0 10 10" refX="9" refY="5" markerWidth="5" markerHeight="5" orient="auto-start-reverse"><path d="M 0 0 L 10 5 L 0 10 z" fill="var(--hd-defense, #209CAD)"/></marker></defs>
  <rect x="8.0" y="8.0" width="500.0" height="320.0" fill="var(--court-floor, #fdfdfd)" stroke="var(--court-line, #3d444d)" stroke-width="1.6"/>
  <path d="M 38.0 328.0 L 38.0 186.02 A 237.5 237.5 0 0 1 478.0 186.02 L 478.0 328.0" stroke="var(--court-line, #3d444d)" fill="none" stroke-width="1.6"/>
  <rect x="178.0" y="138.0" width="160.0" height="190.0" stroke="var(--court-line, #3d444d)" fill="none" stroke-width="1.6"/>
  <path d="M 198.0 138.0 A 60.0 60.0 0 0 1 318.0 138.0" stroke="var(--court-line, #3d444d)" fill="none" stroke-width="1.6"/>
  <path d="M 198.0 138.0 A 60.0 60.0 0 0 0 318.0 138.0" stroke="var(--court-line, #3d444d)" fill="none" stroke-width="1.1" stroke-dasharray="5 4"/>
  <path d="M 218.0 275.5 A 40.0 40.0 0 0 1 298.0 275.5" stroke="var(--court-line, #3d444d)" fill="none" stroke-width="1.1"/>
  <line x1="228.0" y1="288.0" x2="288.0" y2="288.0" stroke="var(--court-line, #3d444d)" stroke-width="2.6"/>
  <circle cx="258.0" cy="275.5" r="7.5" stroke="var(--court-line, #3d444d)" fill="none" stroke-width="2"/>
  <line x1="424.6" y1="166.4" x2="458.6" y2="166.4" stroke="var(--hd-offense, #C97400)" stroke-width="3" stroke-linecap="round"/>
  <path d="M 458.0,128.0 L 453.19,128.61 L 448.79,129.54 L 445.16,131.06 L 442.53,133.35 L 440.99,136.47 L 440.46,140.37 L 440.69,144.86 L 441.33,149.67 L 441.98,154.47 L 442.21,158.96 L 441.67,162.86 L 440.13,165.99 L 437.51,168.28 L 433.88,169.8 L 429.48,170.72 L 424.67,171.33 L 419.85,171.94 L 415.46,172.87 L 411.83,174.39 L 409.2,176.68 L 407.66,179.81 L 407.12,183.7 L 407.35,188.19 L 408.0,193.0 L 408.65,197.81 L 408.88,202.3 L 408.34,206.19 L 406.8,209.32 L 404.17,211.61 L 400.54,213.13 L 396.15,214.06 L 391.33,214.67 L 386.52,215.28 L 382.12,216.2 L 378.49,217.72 L 375.87,220.01 L 374.33,223.14 L 373.79,227.04 L 374.02,231.53 L 374.67,236.33 L 375.31,241.14 L 375.54,245.63 L 375.01,249.53 L 373.47,252.65 L 370.84,254.94 L 367.21,256.46 L 362.81,257.39 L 358.0,258.0" stroke="var(--hd-offense, #C97400)" fill="none" marker-end="url(#hd-arrow-o)" stroke-width="1.7"/>
  <line x1="441.6" y1="185.4" x2="368.0" y2="108.0" stroke="var(--hd-offense, #C97400)" fill="none" marker-end="url(#hd-arrow-o)" stroke-width="1.9"/>
  <circle cx="458.0" cy="128.0" r="15.0" fill="var(--court-floor, #fff)" stroke="var(--hd-offense, #C97400)" stroke-width="2.2"/>
  <text x="458.0" y="128.0" text-anchor="middle" dominant-baseline="central" font-size="15.0" font-weight="600" fill="var(--hd-offense-ink, #A85F00)">1</text>
  <circle cx="475.25" cy="110.75" r="6.2" fill="#F39F1E" stroke="var(--hd-offense, #C97400)" stroke-width="0.8"/>
  <circle cx="441.6" cy="185.4" r="15.0" fill="var(--court-floor, #fff)" stroke="var(--hd-offense, #C97400)" stroke-width="2.2"/>
  <text x="441.6" y="185.4" text-anchor="middle" dominant-baseline="central" font-size="15.0" font-weight="600" fill="var(--hd-offense-ink, #A85F00)">5</text>
  <circle cx="258.0" cy="33.0" r="15.0" fill="var(--court-floor, #fff)" stroke="var(--hd-offense, #C97400)" stroke-width="2.2"/>
  <text x="258.0" y="33.0" text-anchor="middle" dominant-baseline="central" font-size="15.0" font-weight="600" fill="var(--hd-offense-ink, #A85F00)">2</text>
  <circle cx="58.0" cy="128.0" r="15.0" fill="var(--court-floor, #fff)" stroke="var(--hd-offense, #C97400)" stroke-width="2.2"/>
  <text x="58.0" y="128.0" text-anchor="middle" dominant-baseline="central" font-size="15.0" font-weight="600" fill="var(--hd-offense-ink, #A85F00)">3</text>
  <circle cx="46.0" cy="288.0" r="15.0" fill="var(--court-floor, #fff)" stroke="var(--hd-offense, #C97400)" stroke-width="2.2"/>
  <text x="46.0" y="288.0" text-anchor="middle" dominant-baseline="central" font-size="15.0" font-weight="600" fill="var(--hd-offense-ink, #A85F00)">4</text>
  <line x1="415.5" y1="95.5" x2="440.5" y2="120.5" stroke="var(--hd-defense, #209CAD)" stroke-width="2.6" stroke-linecap="round"/>
  <line x1="415.5" y1="120.5" x2="440.5" y2="95.5" stroke="var(--hd-defense, #209CAD)" stroke-width="2.6" stroke-linecap="round"/>
  <text x="411.0" y="112.5" text-anchor="end" font-size="13.0" fill="var(--hd-defense-ink, #14717F)">x1</text>
  <line x1="335.5" y1="195.5" x2="360.5" y2="220.5" stroke="var(--hd-defense, #209CAD)" stroke-width="2.6" stroke-linecap="round"/>
  <line x1="335.5" y1="220.5" x2="360.5" y2="195.5" stroke="var(--hd-defense, #209CAD)" stroke-width="2.6" stroke-linecap="round"/>
  <text x="348.0" y="189.0" text-anchor="middle" font-size="13.0" fill="var(--hd-defense-ink, #14717F)">x5</text>
  <line x1="245.5" y1="55.5" x2="270.5" y2="80.5" stroke="var(--hd-defense, #209CAD)" stroke-width="2.6" stroke-linecap="round"/>
  <line x1="245.5" y1="80.5" x2="270.5" y2="55.5" stroke="var(--hd-defense, #209CAD)" stroke-width="2.6" stroke-linecap="round"/>
  <text x="258.0" y="96.75" text-anchor="middle" font-size="13.0" fill="var(--hd-defense-ink, #14717F)">x2</text>
  <line x1="85.5" y1="145.5" x2="110.5" y2="170.5" stroke="var(--hd-defense, #209CAD)" stroke-width="2.6" stroke-linecap="round"/>
  <line x1="85.5" y1="170.5" x2="110.5" y2="145.5" stroke="var(--hd-defense, #209CAD)" stroke-width="2.6" stroke-linecap="round"/>
  <text x="98.0" y="186.75" text-anchor="middle" font-size="13.0" fill="var(--hd-defense-ink, #14717F)">x3</text>
  <line x1="65.5" y1="235.5" x2="90.5" y2="260.5" stroke="var(--hd-defense, #209CAD)" stroke-width="2.6" stroke-linecap="round"/>
  <line x1="65.5" y1="260.5" x2="90.5" y2="235.5" stroke="var(--hd-defense, #209CAD)" stroke-width="2.6" stroke-linecap="round"/>
  <text x="78.0" y="276.75" text-anchor="middle" font-size="13.0" fill="var(--hd-defense-ink, #14717F)">x4</text>
  <text x="504.0" y="234.0" text-anchor="end" font-size="13.5" font-style="italic" fill="var(--hd-muted, #5b6672)">back to the baseline</text>
  <text x="368.0" y="88.0" text-anchor="middle" font-size="13.5" font-style="italic" fill="var(--hd-muted, #5b6672)">pop or re-screen</text>
</svg>