<svg xmlns="http://www.w3.org/2000/svg" viewBox="0 0 516.0 356.0" width="516.0" role="img" aria-label="Half court, drawn at the moment of the re-screen. A dribble comes in from above the arc on the right, passes over a screen bar labeled first screen, and ends at the handler, 1, who now has the ball on the arc left of center. Both defenders have gone left with him: his defender, x1, is on his left, and the big's defender, x5, is near the left end of the free-throw line. The screener, 5, has turned and stands just below the handler, with a second screen bar, labeled re-screen, between him and x1. A second dribble takes the handler back to the right and down past the screener into the free-throw circle. 4 is on the left wing and 2 and 3 are in the corners, each with a defender." class="hd-court-svg">
  <title>Twist: a second ball screen from the other side, right after the first</title>
  <defs><marker id="hd-arrow-o" viewBox="0 0 10 10" refX="9" refY="5" markerWidth="5" markerHeight="5" orient="auto-start-reverse"><path d="M 0 0 L 10 5 L 0 10 z" fill="var(--hd-offense, #C97400)"/></marker><marker id="hd-arrow-d" viewBox="0 0 10 10" refX="9" refY="5" markerWidth="5" markerHeight="5" orient="auto-start-reverse"><path d="M 0 0 L 10 5 L 0 10 z" fill="var(--hd-defense, #209CAD)"/></marker></defs>
  <rect x="8.0" y="8.0" width="500.0" height="340.0" fill="var(--court-floor, #fdfdfd)" stroke="var(--court-line, #3d444d)" stroke-width="1.6"/>
  <path d="M 38.0 348.0 L 38.0 206.02 A 237.5 237.5 0 0 1 478.0 206.02 L 478.0 348.0" stroke="var(--court-line, #3d444d)" fill="none" stroke-width="1.6"/>
  <rect x="178.0" y="158.0" width="160.0" height="190.0" stroke="var(--court-line, #3d444d)" fill="none" stroke-width="1.6"/>
  <path d="M 198.0 158.0 A 60.0 60.0 0 0 1 318.0 158.0" stroke="var(--court-line, #3d444d)" fill="none" stroke-width="1.6"/>
  <path d="M 198.0 158.0 A 60.0 60.0 0 0 0 318.0 158.0" stroke="var(--court-line, #3d444d)" fill="none" stroke-width="1.1" stroke-dasharray="5 4"/>
  <path d="M 218.0 295.5 A 40.0 40.0 0 0 1 298.0 295.5" stroke="var(--court-line, #3d444d)" fill="none" stroke-width="1.1"/>
  <line x1="228.0" y1="308.0" x2="288.0" y2="308.0" stroke="var(--court-line, #3d444d)" stroke-width="2.6"/>
  <circle cx="258.0" cy="295.5" r="7.5" stroke="var(--court-line, #3d444d)" fill="none" stroke-width="2"/>
  <line x1="313.0" y1="119.0" x2="313.0" y2="85.0" stroke="var(--hd-offense, #C97400)" stroke-width="3" stroke-linecap="round"/>
  <line x1="183.90602787893752" y1="102.4330129275259" x2="207.09397212106248" y2="77.5669870724741" stroke="var(--hd-offense, #C97400)" stroke-width="3" stroke-linecap="round"/>
  <path d="M 343.0,56.0 L 340.72,52.71 L 338.48,49.93 L 336.3,48.13 L 334.21,47.59 L 332.22,48.41 L 330.31,50.5 L 328.47,53.56 L 326.67,57.13 L 324.86,60.71 L 323.02,63.77 L 321.12,65.85 L 319.12,66.68 L 317.03,66.14 L 314.86,64.33 L 312.61,61.56 L 310.33,58.27 L 308.05,54.97 L 305.81,52.2 L 303.63,50.4 L 301.54,49.85 L 299.55,50.68 L 297.64,52.77 L 295.8,55.82 L 294.0,59.4 L 292.2,62.98 L 290.36,66.03 L 288.45,68.12 L 286.46,68.95 L 284.37,68.4 L 282.19,66.6 L 279.95,63.83 L 277.67,60.53 L 275.39,57.24 L 273.14,54.47 L 270.97,52.66 L 268.88,52.12 L 266.88,52.95 L 264.98,55.03 L 263.14,58.09 L 261.33,61.67 L 259.53,65.24 L 257.69,68.3 L 255.78,70.39 L 253.79,71.21 L 251.7,70.67 L 249.52,68.87 L 247.28,66.09 L 245.0,62.8" stroke="var(--hd-offense, #C97400)" fill="none" marker-end="url(#hd-arrow-o)" stroke-width="1.7"/>
  <path d="M 228.0,64.0 L 226.32,67.61 L 225.07,70.93 L 224.61,73.69 L 225.2,75.73 L 226.91,76.98 L 229.65,77.51 L 233.19,77.49 L 237.17,77.17 L 241.14,76.84 L 244.68,76.82 L 247.43,77.35 L 249.14,78.61 L 249.72,80.64 L 249.26,83.41 L 248.01,86.72 L 246.33,90.33 L 244.65,93.95 L 243.4,97.26 L 242.95,100.02 L 243.53,102.06 L 245.24,103.31 L 247.99,103.84 L 251.53,103.82 L 255.5,103.5 L 259.47,103.18 L 263.01,103.16 L 265.76,103.69 L 267.47,104.94 L 268.05,106.98 L 267.6,109.74 L 266.35,113.05 L 264.67,116.67 L 262.99,120.28 L 261.74,123.59 L 261.28,126.36 L 261.86,128.39 L 263.57,129.65 L 266.32,130.18 L 269.86,130.16 L 273.83,129.83 L 277.81,129.51 L 281.35,129.49 L 284.09,130.02 L 285.8,131.27 L 286.39,133.31 L 285.93,136.07 L 284.68,139.39 L 283.0,143.0" stroke="var(--hd-offense, #C97400)" fill="none" marker-end="url(#hd-arrow-o)" stroke-width="1.7"/>
  <circle cx="228.0" cy="64.0" r="15.0" fill="var(--court-floor, #fff)" stroke="var(--hd-offense, #C97400)" stroke-width="2.2"/>
  <text x="228.0" y="64.0" text-anchor="middle" dominant-baseline="central" font-size="15.0" font-weight="600" fill="var(--hd-offense-ink, #A85F00)">1</text>
  <circle cx="245.25" cy="46.75" r="6.2" fill="#F39F1E" stroke="var(--hd-offense, #C97400)" stroke-width="0.8"/>
  <circle cx="213.0" cy="106.0" r="15.0" fill="var(--court-floor, #fff)" stroke="var(--hd-offense, #C97400)" stroke-width="2.2"/>
  <text x="213.0" y="106.0" text-anchor="middle" dominant-baseline="central" font-size="15.0" font-weight="600" fill="var(--hd-offense-ink, #A85F00)">5</text>
  <circle cx="470.0" cy="308.0" r="15.0" fill="var(--court-floor, #fff)" stroke="var(--hd-offense, #C97400)" stroke-width="2.2"/>
  <text x="470.0" y="308.0" text-anchor="middle" dominant-baseline="central" font-size="15.0" font-weight="600" fill="var(--hd-offense-ink, #A85F00)">2</text>
  <circle cx="46.0" cy="308.0" r="15.0" fill="var(--court-floor, #fff)" stroke="var(--hd-offense, #C97400)" stroke-width="2.2"/>
  <text x="46.0" y="308.0" text-anchor="middle" dominant-baseline="central" font-size="15.0" font-weight="600" fill="var(--hd-offense-ink, #A85F00)">3</text>
  <circle cx="58.0" cy="148.0" r="15.0" fill="var(--court-floor, #fff)" stroke="var(--hd-offense, #C97400)" stroke-width="2.2"/>
  <text x="58.0" y="148.0" text-anchor="middle" dominant-baseline="central" font-size="15.0" font-weight="600" fill="var(--hd-offense-ink, #A85F00)">4</text>
  <line x1="165.5" y1="61.5" x2="190.5" y2="86.5" stroke="var(--hd-defense, #209CAD)" stroke-width="2.6" stroke-linecap="round"/>
  <line x1="165.5" y1="86.5" x2="190.5" y2="61.5" stroke="var(--hd-defense, #209CAD)" stroke-width="2.6" stroke-linecap="round"/>
  <text x="178.0" y="55.0" text-anchor="middle" font-size="13.0" fill="var(--hd-defense-ink, #14717F)">x1</text>
  <line x1="173.5" y1="131.5" x2="198.5" y2="156.5" stroke="var(--hd-defense, #209CAD)" stroke-width="2.6" stroke-linecap="round"/>
  <line x1="173.5" y1="156.5" x2="198.5" y2="131.5" stroke="var(--hd-defense, #209CAD)" stroke-width="2.6" stroke-linecap="round"/>
  <text x="169.0" y="148.5" text-anchor="end" font-size="13.0" fill="var(--hd-defense-ink, #14717F)">x5</text>
  <line x1="435.5" y1="255.5" x2="460.5" y2="280.5" stroke="var(--hd-defense, #209CAD)" stroke-width="2.6" stroke-linecap="round"/>
  <line x1="435.5" y1="280.5" x2="460.5" y2="255.5" stroke="var(--hd-defense, #209CAD)" stroke-width="2.6" stroke-linecap="round"/>
  <text x="448.0" y="249.0" text-anchor="middle" font-size="13.0" fill="var(--hd-defense-ink, #14717F)">x2</text>
  <line x1="65.5" y1="255.5" x2="90.5" y2="280.5" stroke="var(--hd-defense, #209CAD)" stroke-width="2.6" stroke-linecap="round"/>
  <line x1="65.5" y1="280.5" x2="90.5" y2="255.5" stroke="var(--hd-defense, #209CAD)" stroke-width="2.6" stroke-linecap="round"/>
  <text x="78.0" y="296.75" text-anchor="middle" font-size="13.0" fill="var(--hd-defense-ink, #14717F)">x3</text>
  <line x1="95.5" y1="165.5" x2="120.5" y2="190.5" stroke="var(--hd-defense, #209CAD)" stroke-width="2.6" stroke-linecap="round"/>
  <line x1="95.5" y1="190.5" x2="120.5" y2="165.5" stroke="var(--hd-defense, #209CAD)" stroke-width="2.6" stroke-linecap="round"/>
  <text x="108.0" y="206.75" text-anchor="middle" font-size="13.0" fill="var(--hd-defense-ink, #14717F)">x4</text>
  <text x="330.0" y="122.0" text-anchor="start" font-size="13.5" font-style="italic" fill="var(--hd-muted, #5b6672)">first screen</text>
  <text x="183.0" y="115.0" text-anchor="end" font-size="13.5" font-style="italic" fill="var(--hd-muted, #5b6672)">re-screen</text>
</svg>