<svg xmlns="http://www.w3.org/2000/svg" viewBox="0 0 516.0 336.0" width="516.0" role="img" aria-label="The ball is at the top. The right wing player's defender is on his baseline side. The wing steps in toward the elbow, taking his defender's attention with him, plants his foot, and comes straight back out to a spot higher on the wing, where the pass from the top meets him. The two cuts make a V." class="hd-court-svg">
  <title>The V-cut: in toward the lane, plant, and back out to the catch</title>
  <defs><marker id="hd-arrow-o" viewBox="0 0 10 10" refX="9" refY="5" markerWidth="5" markerHeight="5" orient="auto-start-reverse"><path d="M 0 0 L 10 5 L 0 10 z" fill="var(--hd-offense, #C97400)"/></marker><marker id="hd-arrow-d" viewBox="0 0 10 10" refX="9" refY="5" markerWidth="5" markerHeight="5" orient="auto-start-reverse"><path d="M 0 0 L 10 5 L 0 10 z" fill="var(--hd-defense, #209CAD)"/></marker></defs>
  <rect x="8.0" y="8.0" width="500.0" height="320.0" fill="var(--court-floor, #fdfdfd)" stroke="var(--court-line, #3d444d)" stroke-width="1.6"/>
  <path d="M 38.0 328.0 L 38.0 186.02 A 237.5 237.5 0 0 1 478.0 186.02 L 478.0 328.0" stroke="var(--court-line, #3d444d)" fill="none" stroke-width="1.6"/>
  <rect x="178.0" y="138.0" width="160.0" height="190.0" stroke="var(--court-line, #3d444d)" fill="none" stroke-width="1.6"/>
  <path d="M 198.0 138.0 A 60.0 60.0 0 0 1 318.0 138.0" stroke="var(--court-line, #3d444d)" fill="none" stroke-width="1.6"/>
  <path d="M 198.0 138.0 A 60.0 60.0 0 0 0 318.0 138.0" stroke="var(--court-line, #3d444d)" fill="none" stroke-width="1.1" stroke-dasharray="5 4"/>
  <path d="M 218.0 275.5 A 40.0 40.0 0 0 1 298.0 275.5" stroke="var(--court-line, #3d444d)" fill="none" stroke-width="1.1"/>
  <line x1="228.0" y1="288.0" x2="288.0" y2="288.0" stroke="var(--court-line, #3d444d)" stroke-width="2.6"/>
  <circle cx="258.0" cy="275.5" r="7.5" stroke="var(--court-line, #3d444d)" fill="none" stroke-width="2"/>
  <line x1="446.0" y1="132.0" x2="384.0" y2="155.0" stroke="var(--hd-offense, #C97400)" fill="none" marker-end="url(#hd-arrow-o)" stroke-width="1.9"/>
  <line x1="387.0" y1="148.0" x2="446.0" y2="77.0" stroke="var(--hd-offense, #C97400)" fill="none" marker-end="url(#hd-arrow-o)" stroke-width="1.9"/>
  <line x1="272.0" y1="36.0" x2="434.0" y2="70.0" stroke="var(--hd-offense, #C97400)" fill="none" marker-end="url(#hd-arrow-o)" stroke-width="1.7" stroke-dasharray="7 5"/>
  <circle cx="258.0" cy="33.0" r="15.0" fill="var(--court-floor, #fff)" stroke="var(--hd-offense, #C97400)" stroke-width="2.2"/>
  <text x="258.0" y="33.0" text-anchor="middle" dominant-baseline="central" font-size="15.0" font-weight="600" fill="var(--hd-offense-ink, #A85F00)">1</text>
  <circle cx="275.25" cy="15.75" r="6.2" fill="#F39F1E" stroke="var(--hd-offense, #C97400)" stroke-width="0.8"/>
  <circle cx="458.0" cy="128.0" r="15.0" fill="var(--court-floor, #fff)" stroke="var(--hd-offense, #C97400)" stroke-width="2.2"/>
  <text x="458.0" y="128.0" text-anchor="middle" dominant-baseline="central" font-size="15.0" font-weight="600" fill="var(--hd-offense-ink, #A85F00)">2</text>
  <circle cx="58.0" cy="128.0" r="15.0" fill="var(--court-floor, #fff)" stroke="var(--hd-offense, #C97400)" stroke-width="2.2"/>
  <text x="58.0" y="128.0" text-anchor="middle" dominant-baseline="central" font-size="15.0" font-weight="600" fill="var(--hd-offense-ink, #A85F00)">3</text>
  <circle cx="46.0" cy="288.0" r="15.0" fill="var(--court-floor, #fff)" stroke="var(--hd-offense, #C97400)" stroke-width="2.2"/>
  <text x="46.0" y="288.0" text-anchor="middle" dominant-baseline="central" font-size="15.0" font-weight="600" fill="var(--hd-offense-ink, #A85F00)">4</text>
  <circle cx="178.0" cy="258.0" r="15.0" fill="var(--court-floor, #fff)" stroke="var(--hd-offense, #C97400)" stroke-width="2.2"/>
  <text x="178.0" y="258.0" text-anchor="middle" dominant-baseline="central" font-size="15.0" font-weight="600" fill="var(--hd-offense-ink, #A85F00)">5</text>
  <line x1="245.5" y1="55.5" x2="270.5" y2="80.5" stroke="var(--hd-defense, #209CAD)" stroke-width="2.6" stroke-linecap="round"/>
  <line x1="245.5" y1="80.5" x2="270.5" y2="55.5" stroke="var(--hd-defense, #209CAD)" stroke-width="2.6" stroke-linecap="round"/>
  <text x="258.0" y="96.75" text-anchor="middle" font-size="13.0" fill="var(--hd-defense-ink, #14717F)">x1</text>
  <line x1="461.5" y1="161.5" x2="486.5" y2="186.5" stroke="var(--hd-defense, #209CAD)" stroke-width="2.6" stroke-linecap="round"/>
  <line x1="461.5" y1="186.5" x2="486.5" y2="161.5" stroke="var(--hd-defense, #209CAD)" stroke-width="2.6" stroke-linecap="round"/>
  <text x="474.0" y="202.75" text-anchor="middle" font-size="13.0" fill="var(--hd-defense-ink, #14717F)">x2</text>
  <line x1="75.5" y1="135.5" x2="100.5" y2="160.5" stroke="var(--hd-defense, #209CAD)" stroke-width="2.6" stroke-linecap="round"/>
  <line x1="75.5" y1="160.5" x2="100.5" y2="135.5" stroke="var(--hd-defense, #209CAD)" stroke-width="2.6" stroke-linecap="round"/>
  <text x="88.0" y="176.75" text-anchor="middle" font-size="13.0" fill="var(--hd-defense-ink, #14717F)">x3</text>
  <line x1="60.5" y1="235.5" x2="85.5" y2="260.5" stroke="var(--hd-defense, #209CAD)" stroke-width="2.6" stroke-linecap="round"/>
  <line x1="60.5" y1="260.5" x2="85.5" y2="235.5" stroke="var(--hd-defense, #209CAD)" stroke-width="2.6" stroke-linecap="round"/>
  <text x="73.0" y="276.75" text-anchor="middle" font-size="13.0" fill="var(--hd-defense-ink, #14717F)">x4</text>
  <line x1="193.5" y1="266.5" x2="218.5" y2="291.5" stroke="var(--hd-defense, #209CAD)" stroke-width="2.6" stroke-linecap="round"/>
  <line x1="193.5" y1="291.5" x2="218.5" y2="266.5" stroke="var(--hd-defense, #209CAD)" stroke-width="2.6" stroke-linecap="round"/>
  <text x="206.0" y="307.75" text-anchor="middle" font-size="13.0" fill="var(--hd-defense-ink, #14717F)">x5</text>
  <text x="372.0" y="162.0" text-anchor="end" font-size="13.5" font-style="italic" fill="var(--hd-muted, #5b6672)">in</text>
  <text x="398.0" y="94.0" text-anchor="end" font-size="13.5" font-style="italic" fill="var(--hd-muted, #5b6672)">out</text>
</svg>